<svg id="Layer_1" data-name="Layer 1" xmlns="http://www.w3.org/2000/svg" width="129.64" height="126.64" viewBox="0 0 129.64 126.64">
  <defs>
    <style>
      .cls-1 {
        fill: #7b868c;
      }

      .cls-2 {
        fill: #ffc700;
      }

      .cls-3 {
        fill: #ff6b00;
      }

      .cls-4 {
        fill: #93d600;
      }

      .cls-5 {
        fill: #00c1df;
      }

      .cls-6 {
        fill: #1a91be;
      }
    </style>
  </defs>
  <title>Artboard 1</title>
  <path class="cls-1" d="M76.62,125.83a52.41,52.41,0,1,1,45-25.56L117.83,98a48,48,0,1,0-9.93,11.8l2.9,3.36a52.4,52.4,0,0,1-34.18,12.68"/>
  <path class="cls-2" d="M93.83,10.76a6.36,6.36,0,1,0,6.36,6.36,6.36,6.36,0,0,0-6.36-6.36m0,16.27a9.91,9.91,0,1,1,9.91-9.91A9.91,9.91,0,0,1,93.83,27"/>
  <path class="cls-3" d="M10.13,94.92a6.36,6.36,0,1,0,6.35,6.36,6.36,6.36,0,0,0-6.35-6.36m0,16.27A9.91,9.91,0,1,1,20,101.28a9.92,9.92,0,0,1-9.91,9.91"/>
  <path class="cls-4" d="M115.34,99.62A6.36,6.36,0,1,0,121.7,106a6.37,6.37,0,0,0-6.36-6.36m0,16.27a9.92,9.92,0,1,1,9.92-9.91,9.93,9.93,0,0,1-9.92,9.91"/>
  <path class="cls-5" d="M48.89,54.35a6.86,6.86,0,1,0,6.86,6.86,6.87,6.87,0,0,0-6.86-6.86m0,17.28A10.42,10.42,0,1,1,59.31,61.21,10.42,10.42,0,0,1,48.89,71.63"/>
  <polygon class="cls-2" points="72.69 81.37 72.69 81.37 69.35 80.16 89.33 24.98 92.67 26.19 72.69 81.37"/>
  <polygon class="cls-4" points="107.03 104.47 107.03 104.47 75.61 93.46 76.79 90.1 108.21 101.11 107.03 104.47"/>
  <polygon class="cls-5" points="60.77 83.66 60.77 83.66 51.93 69.72 54.93 67.82 63.77 81.76 60.77 83.66"/>
  <polygon class="cls-3" points="18.56 101.4 18.56 101.4 17.9 97.91 58.38 90.19 59.04 93.69 18.56 101.4"/>
  <path class="cls-6" d="M67.78,81.9a6.86,6.86,0,1,0,6.86,6.86,6.86,6.86,0,0,0-6.86-6.86m0,17.27A10.42,10.42,0,1,1,78.2,88.76,10.42,10.42,0,0,1,67.78,99.17"/>
</svg>
